<?xml version="1.0" standalone="no"?>
<!DOCTYPE svg PUBLIC "-//W3C//DTD SVG 20010904//EN"
 "http://www.w3.org/TR/2001/REC-SVG-20010904/DTD/svg10.dtd">
<svg version="1.0" xmlns="http://www.w3.org/2000/svg"
 width="512.000000pt" height="512.000000pt" viewBox="0 0 512.000000 512.000000"
 preserveAspectRatio="xMidYMid meet">
<metadata>
Created by potrace 1.11, written by Peter Selinger 2001-2013
</metadata>
<g transform="translate(0.000000,512.000000) scale(0.100000,-0.100000)"
fill="#000000" stroke="none">
<path d="M1775 5020 c-3 -5 -1 -10 4 -10 6 0 11 5 11 10 0 6 -2 10 -4 10 -3 0
-8 -4 -11 -10z"/>
<path d="M3335 5021 c-3 -5 -2 -12 3 -15 5 -3 9 1 9 9 0 17 -3 19 -12 6z"/>
<path d="M3420 5020 c-9 -6 -10 -10 -3 -10 6 0 15 5 18 10 8 12 4 12 -15 0z"/>
<path d="M1713 4994 c0 -9 4 -11 12 -4 7 5 14 9 16 7 2 -1 3 0 1 2 -7 11 -29
7 -29 -5z"/>
<path d="M1896 4993 c-6 -14 -5 -15 5 -6 7 7 10 15 7 18 -3 3 -9 -2 -12 -12z"/>
<path d="M3190 5006 c0 -2 7 -7 16 -10 8 -3 12 -2 9 4 -6 10 -25 14 -25 6z"/>
<path d="M3308 4992 c9 -10 19 -17 21 -16 6 5 -20 34 -30 34 -5 0 -1 -8 9 -18z"/>
<path d="M3393 4998 c3 -9 1 -19 -6 -22 -9 -3 -9 -5 0 -5 18 -1 23 13 11 29
-8 12 -9 12 -5 -2z"/>
<path d="M3556 5002 c-3 -5 1 -9 9 -9 8 0 12 4 9 9 -3 4 -7 8 -9 8 -2 0 -6 -4
-9 -8z"/>
<path d="M1639 4995 c-1 -3 -2 -10 -3 -15 0 -6 -8 -15 -16 -20 -9 -6 -10 -10
-3 -10 13 0 26 17 29 38 2 11 -5 18 -7 7z"/>
<path d="M1663 4977 c-3 -6 -1 -7 5 -3 5 3 12 1 14 -6 3 -8 6 -7 10 3 7 17
-19 22 -29 6z"/>
<path d="M1826 4975 c4 -10 0 -13 -17 -10 -12 3 -29 -1 -38 -8 -12 -10 -14 -9
-9 3 4 11 -1 16 -16 17 -11 0 -15 -1 -8 -4 6 -3 12 -9 12 -14 0 -6 -4 -7 -10
-4 -5 3 -10 1 -10 -5 0 -6 -5 -8 -10 -5 -6 4 -7 11 -4 17 4 7 2 8 -5 4 -6 -4
-9 -11 -6 -16 3 -4 -2 -11 -11 -14 -8 -3 -13 -2 -10 3 3 5 0 11 -8 14 -8 3
-13 -1 -12 -10 0 -9 -7 -17 -17 -18 -9 -2 -15 1 -11 6 3 5 10 6 16 3 7 -4 8
-2 4 5 -6 9 -11 9 -21 1 -7 -6 -20 -8 -29 -4 -9 3 -16 1 -16 -6 0 -6 4 -9 9
-5 5 3 12 1 16 -5 3 -5 -3 -10 -14 -10 -11 0 -25 8 -31 18 -9 14 -10 13 -4 -8
6 -23 5 -24 -10 -11 -9 8 -16 10 -15 5 4 -25 -3 -24 -28 2 l-26 29 17 -27 c9
-16 12 -28 7 -28 -5 0 -13 5 -16 10 -8 13 -25 13 -25 -1 0 -5 5 -7 10 -4 6 3
10 1 10 -4 0 -15 -13 -14 -29 2 -10 10 -11 9 -6 -4 3 -9 0 -16 -7 -17 -55 -7
-63 -6 -60 6 3 17 -15 15 -22 -4 -4 -10 -2 -13 7 -8 8 5 9 4 2 -4 -6 -6 -19
-13 -30 -15 -11 -1 -26 -6 -32 -10 -18 -11 -16 4 4 33 16 24 16 25 -3 9 -10
-9 -24 -15 -29 -13 -6 2 -15 -4 -22 -14 -9 -15 -8 -19 3 -19 7 0 11 4 8 8 -2
4 0 10 6 14 5 3 10 -3 10 -14 0 -18 -5 -20 -37 -16 -30 5 -35 3 -23 -5 12 -10
11 -11 -7 -7 -13 3 -23 1 -23 -4 0 -5 -4 -9 -10 -9 -5 0 -7 8 -4 18 4 12 1 11
-13 -6 -11 -13 -31 -23 -51 -25 -17 -1 -32 -5 -32 -8 0 -3 -25 -12 -55 -19
-67 -16 -70 -25 -15 -45 55 -21 70 -28 70 -36 0 -5 7 -9 16 -9 9 0 46 -20 83
-45 166 -112 253 -228 307 -408 l24 -81 0 -1382 0 -1382 47 -59 c126 -156 366
-369 553 -489 49 -31 233 -125 237 -120 2 1 3 911 3 2021 0 1914 -1 2018 -17
2031 -10 7 -26 14 -35 14 -10 0 -18 5 -18 12 0 6 -3 8 -7 4 -4 -3 -13 4 -21
16 -7 13 -11 15 -8 6 3 -10 1 -18 -4 -18 -11 0 -35 41 -32 54 2 5 -4 4 -12 -4
-17 -14 -22 -25 -7 -15 5 3 12 1 16 -5 9 -14 -7 -12 -51 6 -22 9 -41 15 -43
14 -2 -1 -7 4 -11 11 -5 7 -20 13 -36 15 -15 2 -31 9 -35 16 -5 7 -9 9 -9 4 0
-5 -7 -3 -15 4 -8 7 -15 9 -15 6 0 -4 -9 -2 -21 5 -14 7 -19 17 -16 30 3 10 1
17 -4 13 -5 -3 -9 -13 -9 -22 0 -14 -2 -13 -14 3 -7 10 -20 16 -29 12 -8 -3
-18 -3 -22 1 -6 7 -10 8 -36 11 -6 0 -9 7 -6 15 3 8 0 17 -8 20 -9 3 -12 0 -9
-9z"/>
<path d="M3155 4980 c-3 -5 -1 -10 4 -10 6 0 11 5 11 10 0 6 -2 10 -4 10 -3 0
-8 -4 -11 -10z"/>
<path d="M3192 4985 c4 -4 3 -14 -4 -22 -6 -7 -9 -15 -7 -18 3 -2 10 4 17 15
9 15 9 21 -1 26 -6 4 -9 4 -5 -1z"/>
<path d="M3244 4975 c-3 -8 -3 -18 0 -24 4 -5 2 -12 -4 -16 -9 -6 -14 8 -11
28 1 5 -3 6 -9 2 -6 -4 -8 -16 -4 -27 4 -13 2 -18 -5 -14 -6 4 -21 0 -34 -9
-22 -14 -25 -13 -47 10 -13 14 -28 25 -33 25 -5 0 2 -9 17 -21 29 -23 35 -42
9 -32 -12 5 -14 3 -8 -8 4 -8 5 -11 0 -7 -4 4 -15 3 -22 -4 -9 -7 -17 -8 -21
-2 -4 5 -16 16 -27 24 -19 14 -19 14 -5 -4 14 -18 13 -19 -3 -13 -12 5 -16 3
-11 -5 5 -8 2 -9 -11 -4 -14 5 -16 4 -6 -7 9 -12 5 -17 -21 -28 -18 -8 -39
-12 -47 -11 -8 2 -10 -1 -5 -10 6 -10 3 -9 -10 1 -13 11 -19 12 -29 2 -9 -10
-8 -11 6 -6 10 5 17 2 17 -6 0 -7 -3 -9 -7 -6 -3 4 -16 1 -27 -6 -12 -8 -31
-13 -43 -12 -12 1 -20 -2 -18 -6 3 -3 -8 -12 -24 -19 -16 -6 -31 -19 -33 -28
-1 -9 -1 -920 2 -2023 l5 -2006 82 38 c207 95 514 343 699 563 l49 59 5 1401
c3 771 8 1410 12 1421 50 156 97 239 183 328 64 66 181 151 196 141 5 -3 9 0
9 5 0 6 32 25 70 42 69 31 88 49 52 49 -10 0 -22 3 -26 8 -8 7 -14 9 -47 11
-12 0 -17 5 -13 12 4 8 0 9 -15 4 -11 -3 -26 -3 -33 2 -7 4 -17 8 -23 8 -32 3
-64 18 -58 29 4 6 -1 5 -10 -3 -10 -8 -17 -9 -17 -3 0 6 -8 9 -17 8 -10 -2
-29 1 -43 7 -14 5 -34 12 -45 14 -63 12 -95 25 -88 35 5 9 8 9 11 0 2 -7 8
-12 14 -12 20 0 -23 38 -47 43 -14 2 -22 0 -19 -4 3 -5 14 -9 26 -9 17 0 18
-2 8 -15 -7 -9 -16 -12 -19 -7 -3 5 -13 9 -21 10 -24 2 -63 10 -97 20 -18 6
-33 8 -33 5 0 -3 -6 0 -13 6 -8 6 -17 8 -20 4 -4 -3 -7 -1 -7 6 0 7 6 11 13 8
8 -3 14 1 14 9 0 12 -5 11 -25 -2 -22 -14 -24 -14 -19 -1 5 13 1 14 -23 7 -31
-9 -70 -3 -70 10 0 5 -13 6 -30 4 -20 -4 -30 -1 -30 8 0 8 -5 6 -11 -5 -8 -14
-14 -16 -25 -6 -12 10 -13 9 -8 -6 5 -13 4 -16 -5 -11 -7 5 -11 17 -8 27 6 22
-1 26 -9 4z m-194 -115 c-8 -5 -17 -7 -19 -4 -3 3 1 9 9 14 8 5 17 7 19 4 3
-3 -1 -9 -9 -14z"/>
<path d="M3275 4980 c3 -5 8 -10 11 -10 2 0 4 5 4 10 0 6 -5 10 -11 10 -5 0
-7 -4 -4 -10z"/>
<path d="M1861 4964 c0 -11 3 -14 6 -6 3 7 2 16 -1 19 -3 4 -6 -2 -5 -13z"/>
<path d="M3468 4973 c7 -3 16 -2 19 1 4 3 -2 6 -13 5 -11 0 -14 -3 -6 -6z"/>
<path d="M3508 4973 c7 -3 16 -2 19 1 4 3 -2 6 -13 5 -11 0 -14 -3 -6 -6z"/>
<path d="M3553 4965 c-3 -9 -3 -18 -1 -21 3 -3 8 4 11 16 6 23 -1 27 -10 5z"/>
<path d="M1479 4953 c-13 -16 -12 -17 4 -4 9 7 17 15 17 17 0 8 -8 3 -21 -13z"/>
<path d="M1516 4961 c-3 -4 6 -7 19 -7 14 0 22 2 19 5 -8 8 -34 10 -38 2z"/>
<path d="M1575 4960 c-3 -5 -1 -10 4 -10 6 0 11 5 11 10 0 6 -2 10 -4 10 -3 0
-8 -4 -11 -10z"/>
<path d="M1890 4960 c0 -5 5 -10 11 -10 5 0 7 5 4 10 -3 6 -8 10 -11 10 -2 0
-4 -4 -4 -10z"/>
<path d="M3130 4960 c0 -5 5 -10 11 -10 5 0 7 5 4 10 -3 6 -8 10 -11 10 -2 0
-4 -4 -4 -10z"/>
<path d="M3405 4960 c-3 -6 1 -7 9 -4 18 7 21 14 7 14 -6 0 -13 -4 -16 -10z"/>
<path d="M3619 4953 c-12 -16 -12 -17 2 -6 9 7 20 9 24 5 5 -4 5 -1 1 6 -9 16
-11 15 -27 -5z"/>
<path d="M1990 4950 c-9 -6 -10 -10 -3 -10 6 0 15 5 18 10 8 12 4 12 -15 0z"/>
<path d="M3734 4943 c3 -6 -2 -17 -11 -23 -17 -11 -17 -11 1 -6 14 5 17 2 12
-9 -3 -9 -2 -13 4 -10 11 7 8 41 -5 52 -4 5 -5 3 -1 -4z"/>
<path d="M1273 4927 c0 -8 6 -14 14 -14 9 0 10 4 2 14 -6 7 -12 13 -14 13 -1
0 -2 -6 -2 -13z"/>
<path d="M2013 4933 c4 -3 -1 -12 -11 -20 -15 -13 -15 -13 6 -3 19 9 23 30 5
30 -4 0 -3 -3 0 -7z"/>
<path d="M3148 4928 c5 -5 16 -8 23 -6 8 3 3 7 -10 11 -17 4 -21 3 -13 -5z"/>
<path d="M3516 4932 c-3 -4 4 -9 15 -9 23 -2 25 3 4 10 -8 4 -16 3 -19 -1z"/>
<path d="M3638 4933 c7 -3 16 -2 19 1 4 3 -2 6 -13 5 -11 0 -14 -3 -6 -6z"/>
<path d="M1315 4921 c-3 -5 -2 -12 3 -15 5 -3 9 1 9 9 0 17 -3 19 -12 6z"/>
<path d="M1356 4916 c5 -13 4 -17 -4 -12 -8 5 -10 2 -5 -10 6 -15 7 -15 16 1
6 11 5 21 -3 28 -8 9 -9 7 -4 -7z"/>
<path d="M1970 4919 c0 -5 5 -7 10 -4 6 3 10 8 10 11 0 2 -4 4 -10 4 -5 0 -10
-5 -10 -11z"/>
<path d="M2076 4916 c6 -15 4 -17 -6 -11 -9 6 -11 4 -5 -4 5 -9 10 -10 18 -2
8 8 7 14 -2 24 -10 10 -11 8 -5 -7z"/>
<path d="M2136 4922 c-2 -4 -1 -14 4 -22 7 -11 9 -9 7 8 -1 24 -3 26 -11 14z"/>
<path d="M3092 4925 c4 -4 3 -16 -3 -26 -5 -11 -7 -19 -5 -19 3 0 10 9 16 19
7 15 7 22 -2 27 -7 4 -10 4 -6 -1z"/>
<path d="M3579 4913 c12 -8 25 -12 28 -9 4 3 1 6 -6 6 -7 0 -10 4 -7 8 2 4 -5
9 -16 9 -21 2 -21 2 1 -14z"/>
<path d="M3625 4910 c10 -11 20 -20 23 -20 3 0 -3 9 -13 20 -10 11 -20 20 -23
20 -3 0 3 -9 13 -20z"/>
<path d="M1395 4910 c-3 -5 -1 -10 4 -10 6 0 11 5 11 10 0 6 -2 10 -4 10 -3 0
-8 -4 -11 -10z"/>
<path d="M1213 4895 c0 -8 4 -12 9 -9 5 3 6 10 3 15 -9 13 -12 11 -12 -6z"/>
<path d="M2024 4898 c-4 -7 -4 -10 1 -6 4 4 14 3 22 -4 11 -8 12 -7 7 6 -7 19
-20 21 -30 4z"/>
<path d="M2170 4900 c0 -5 5 -10 11 -10 5 0 7 5 4 10 -3 6 -8 10 -11 10 -2 0
-4 -4 -4 -10z"/>
<path d="M2207 4899 c7 -7 15 -10 18 -7 3 3 -2 9 -12 12 -14 6 -15 5 -6 -5z"/>
<path d="M3854 4902 c4 -7 0 -12 -11 -13 -17 0 -17 -1 0 -8 10 -4 18 -10 17
-14 0 -4 3 -15 8 -23 8 -15 10 -14 16 1 3 10 4 20 1 23 -3 3 -5 0 -5 -7 0 -7
-4 -10 -9 -6 -6 3 -8 14 -6 25 2 11 -1 23 -7 26 -7 4 -8 2 -4 -4z"/>
<path d="M1415 4889 c-11 -16 -1 -19 13 -3 7 8 8 14 3 14 -5 0 -13 -5 -16 -11z"/>
<path d="M3751 4886 c-9 -10 -8 -15 2 -19 8 -3 13 3 13 14 0 23 0 23 -15 5z"/>
<path d="M2079 4878 c-11 -8 -10 -9 5 -4 11 4 26 0 35 -8 9 -8 23 -16 31 -18
8 -2 18 -7 22 -13 4 -5 10 -6 14 -2 9 8 1 17 -18 21 -25 5 -48 18 -44 25 7 11
-29 10 -45 -1z"/>
<path d="M3780 4876 c0 -8 4 -18 10 -21 6 -4 7 1 3 11 -5 13 -3 15 7 9 9 -5
11 -4 6 3 -10 17 -26 15 -26 -2z"/>
<path d="M3910 4881 c0 -6 4 -13 10 -16 6 -3 7 1 4 9 -7 18 -14 21 -14 7z"/>
<path d="M1330 4859 c0 -5 5 -7 10 -4 6 3 10 8 10 11 0 2 -4 4 -10 4 -5 0 -10
-5 -10 -11z"/>
<path d="M2950 4861 c0 -5 7 -11 14 -14 10 -4 13 -1 9 9 -6 15 -23 19 -23 5z"/>
<path d="M3815 4860 c-3 -6 2 -13 12 -17 10 -3 22 -8 27 -11 5 -3 6 0 2 6 -4
7 -14 12 -22 12 -8 0 -12 5 -9 10 3 6 4 10 1 10 -3 0 -8 -5 -11 -10z"/>
<path d="M1225 4850 c-3 -6 1 -7 9 -4 18 7 21 14 7 14 -6 0 -13 -4 -16 -10z"/>
<path d="M2917 4849 c7 -7 15 -10 18 -7 3 3 -2 9 -12 12 -14 6 -15 5 -6 -5z"/>
<path d="M3896 4843 c-6 -14 -5 -15 5 -6 7 7 10 15 7 18 -3 3 -9 -2 -12 -12z"/>
<path d="M3990 4856 c0 -2 8 -10 18 -17 15 -13 16 -12 3 4 -13 16 -21 21 -21
13z"/>
<path d="M1113 4834 c0 -7 7 -10 15 -6 11 4 13 1 7 -9 -5 -8 -4 -11 0 -6 16
14 13 33 -5 33 -9 0 -17 -6 -17 -12z"/>
<path d="M1195 4840 c3 -5 8 -10 11 -10 2 0 4 5 4 10 0 6 -5 10 -11 10 -5 0
-7 -4 -4 -10z"/>
<path d="M2856 4842 c-3 -4 4 -9 15 -9 23 -2 25 3 4 10 -8 4 -16 3 -19 -1z"/>
<path d="M3930 4832 c6 -12 15 -20 20 -17 4 3 11 0 13 -5 4 -7 5 -6 4 1 -2 6
-6 9 -9 7 -4 -2 -14 6 -23 17 -16 19 -16 19 -5 -3z"/>
<path d="M3970 4840 c0 -5 5 -10 11 -10 5 0 7 5 4 10 -3 6 -8 10 -11 10 -2 0
-4 -4 -4 -10z"/>
<path d="M1056 4818 c3 -5 10 -6 15 -3 13 9 11 12 -6 12 -8 0 -12 -4 -9 -9z"/>
<path d="M4020 4811 c0 -7 -5 -9 -12 -5 -7 5 -8 3 -3 -5 5 -9 10 -10 18 -2 6
6 8 14 4 18 -4 3 -7 1 -7 -6z"/>
<path d="M1006 4778 c3 -5 10 -6 15 -3 13 9 11 12 -6 12 -8 0 -12 -4 -9 -9z"/>
<path d="M3435 489 c-4 -6 -5 -12 -2 -15 2 -3 7 2 10 11 7 17 1 20 -8 4z"/>
<path d="M1750 486 c0 -2 7 -7 16 -10 8 -3 12 -2 9 4 -6 10 -25 14 -25 6z"/>
<path d="M1833 475 c0 -8 4 -12 9 -9 5 3 6 10 3 15 -9 13 -12 11 -12 -6z"/>
<path d="M3073 473 c0 -9 4 -10 14 -2 7 6 13 12 13 14 0 1 -6 2 -13 2 -8 0
-14 -6 -14 -14z"/>
<path d="M3126 482 c-3 -5 1 -9 9 -9 8 0 12 4 9 9 -3 4 -7 8 -9 8 -2 0 -6 -4
-9 -8z"/>
<path d="M2893 449 c-2 -23 3 -25 10 -4 4 8 3 16 -1 19 -4 3 -9 -4 -9 -15z"/>
<path d="M2975 461 c-3 -5 -2 -12 3 -15 5 -3 9 1 9 9 0 17 -3 19 -12 6z"/>
<path d="M3015 460 c-3 -5 -1 -10 4 -10 6 0 11 5 11 10 0 6 -2 10 -4 10 -3 0
-8 -4 -11 -10z"/>
<path d="M1869 443 c-13 -16 -12 -17 4 -4 16 13 21 21 13 21 -2 0 -10 -8 -17
-17z"/>
<path d="M3236 447 c3 -10 9 -15 12 -12 3 3 0 11 -7 18 -10 9 -11 8 -5 -6z"/>
<path d="M3274 449 c-3 -6 -2 -15 3 -20 5 -5 9 -1 9 11 0 23 -2 24 -12 9z"/>
<path d="M2016 442 c-3 -5 1 -9 9 -9 8 0 12 4 9 9 -3 4 -7 8 -9 8 -2 0 -6 -4
-9 -8z"/>
<path d="M3065 440 c-3 -6 1 -7 9 -4 18 7 21 14 7 14 -6 0 -13 -4 -16 -10z"/>
<path d="M3112 445 c3 -3 16 -8 28 -10 12 -2 20 -1 16 2 -4 4 -16 8 -28 10
-12 2 -19 1 -16 -2z"/>
<path d="M3310 446 c0 -2 7 -7 16 -10 8 -3 12 -2 9 4 -6 10 -25 14 -25 6z"/>
<path d="M2066 398 c3 -5 10 -6 15 -3 13 9 11 12 -6 12 -8 0 -12 -4 -9 -9z"/>
<path d="M2300 406 c0 -2 8 -10 18 -17 15 -13 16 -12 3 4 -13 16 -21 21 -21
13z"/>
<path d="M3015 400 c-3 -5 -1 -10 4 -10 6 0 11 5 11 10 0 6 -2 10 -4 10 -3 0
-8 -4 -11 -10z"/>
<path d="M3226 398 c3 -5 10 -6 15 -3 13 9 11 12 -6 12 -8 0 -12 -4 -9 -9z"/>
<path d="M3435 400 c-3 -5 -1 -10 4 -10 6 0 11 5 11 10 0 6 -2 10 -4 10 -3 0
-8 -4 -11 -10z"/>
<path d="M1814 378 c-4 -7 -4 -10 1 -6 4 4 15 2 24 -5 14 -11 14 -10 2 6 -16
20 -18 21 -27 5z"/>
<path d="M2094 382 c4 -3 14 -7 22 -8 9 -1 13 0 10 4 -4 3 -14 7 -22 8 -9 1
-13 0 -10 -4z"/>
<path d="M2716 378 c3 -5 10 -6 15 -3 13 9 11 12 -6 12 -8 0 -12 -4 -9 -9z"/>
<path d="M1709 323 c-13 -16 -12 -17 4 -4 16 13 21 21 13 21 -2 0 -10 -8 -17
-17z"/>
</g>
</svg>
